# xmcd
#
# Track frame offsets:
#	150
#	17505
#	29253
#	45431
#	54272
#	64369
#	76093
#	86380
#	99325
#	113718
#	135743
#	145085
#	159130
#	166539
#
# Disc length: 2326
#
# Revision: 1
# Processed by: cddbd v1.5.1PL0 Copyright (c) Steve Scherf et al.
# Submitted via: CDex 1.40Beta8
# Normalized: r0:TRMNUM
#
DISCID=9609140e
DTITLE=TIÃO CARREIRO E PARDINHO - Trilha Sonora Original do filme "Sertão em Festa".
DYEAR=1975
DGENRE=Country
TTITLE0=TRISTEZA DO JECA - TIÃO CARREIRO E PARDINHO
TTITLE1=SAÚDE, PAZ E AMOR - LUIZ GOMES
TTITLE2=EM TEMPO DE AVANÇO - TIÃO CARREIRO E PARDINHO
TTITLE3=VAI CHORANDO, CORAÇÃO - DUO GLACIAL
TTITLE4=CABOCLINHA MALVADA - TIÃO CARREIRO E PARDINHO
TTITLE5=MESTRE CARREIRO - TIÃO CARREIRO E PARDINHO
TTITLE6=TRISTEZA DO JECA - POLY
TTITLE7=ÔI, VIDA MINHA - TIÃO CARREIRO E PARDINHO
TTITLE8=NOVE E NOVE - TIÃO CARREIRO E PARDINHO
TTITLE9=ZENILTON E PERERECA - ZENILTON E MARIAZINHA
TTITLE10=JERIMUM - TIÃO CARREIRO E PARDINHO
TTITLE11=PAGODE - TIÃO CARREIRO E PARDINHO
TTITLE12=BIQUINHA DE ÁGUA LIMPA - DUO GLACIAL
TTITLE13=VAI CORANDO, CORAÇÃO - POLY
EXTD=YEAR: 1975 ID3G: 2
EXTT0=
EXTT1=
EXTT2=
EXTT3=
EXTT4=
EXTT5=
EXTT6=
EXTT7=
EXTT8=
EXTT9=
EXTT10=
EXTT11=
EXTT12=
EXTT13=
PLAYORDER=
